inDegrees=no
num_controls=7
num_derivatives=13
num_iterations=126
num_multipliers=7
num_parameters=0
num_slacks=7
num_states=26
objective=0.442434
objective_accelerations=0.061073
objective_balance=0.003925
objective_effort=0.025099
objective_height=0.346867
objective_ligament=0.005470
solver_duration=1893.749977
status=Solve_Succeeded
success=true
DataType=double
version=3
OpenSimVersion=4.5
endheader
time	/jointset/ground_pelvis/pelvis_tilt/value	/jointset/ground_pelvis/pelvis_tx/value	/jointset/ground_pelvis/pelvis_ty/value	/jointset/hip_l/hip_flexion_l/value	/jointset/hip_l/hip_adduction_l/value	/jointset/hip_l/hip_rotation_l/value	/jointset/back/lumbar_extension/value	/jointset/patellofemoral_l/patellar_flexion_l/value	/jointset/knee_l/knee_flexion_l/value	/jointset/knee_l/knee_adduction_l/value	/jointset/knee_l/knee_rotation_l/value	/jointset/ankle_l/ankle_angle_l/value	/jointset/subtalar_l/subtalar_angle_l/value	/jointset/ground_pelvis/pelvis_tilt/speed	/jointset/ground_pelvis/pelvis_tx/speed	/jointset/ground_pelvis/pelvis_ty/speed	/jointset/hip_l/hip_flexion_l/speed	/jointset/hip_l/hip_adduction_l/speed	/jointset/hip_l/hip_rotation_l/speed	/jointset/back/lumbar_extension/speed	/jointset/patellofemoral_l/patellar_flexion_l/speed	/jointset/knee_l/knee_flexion_l/speed	/jointset/knee_l/knee_adduction_l/speed	/jointset/knee_l/knee_rotation_l/speed	/jointset/ankle_l/ankle_angle_l/speed	/jointset/subtalar_l/subtalar_angle_l/speed	/forceset/tau_hip_flexion_l	/forceset/tau_hip_adduction_l	/forceset/tau_hip_rotation_l	/forceset/tau_knee_flexion_l	/forceset/tau_ankle_angle_l	/forceset/tau_subtalar_angle_l	/forceset/tau_lumbar_extension	lambda_cid13_p0	lambda_cid13_p1	lambda_cid13_p2	lambda_cid13_p3	lambda_cid13_p4	lambda_cid13_p5	lambda_cid14_p0	/jointset/ground_pelvis/pelvis_tilt/accel	/jointset/ground_pelvis/pelvis_tx/accel	/jointset/ground_pelvis/pelvis_ty/accel	/jointset/hip_l/hip_flexion_l/accel	/jointset/hip_l/hip_adduction_l/accel	/jointset/hip_l/hip_rotation_l/accel	/jointset/back/lumbar_extension/accel	/jointset/patellofemoral_l/patellar_flexion_l/accel	/jointset/knee_l/knee_flexion_l/accel	/jointset/knee_l/knee_adduction_l/accel	/jointset/knee_l/knee_rotation_l/accel	/jointset/ankle_l/ankle_angle_l/accel	/jointset/subtalar_l/subtalar_angle_l/accel	gamma_cid13_p0	gamma_cid13_p1	gamma_cid13_p2	gamma_cid13_p3	gamma_cid13_p4	gamma_cid13_p5	gamma_cid14_p0
0.5	-0.376489832603305	-0.0552161385375816	0.7465135743510993	1.181248520783946	-0.4367709249540349	-0.213803239190118	-0.2557476356781323	0.832869778886231	0.832869778886179	-0.1210823895958212	-0.1600921159649483	0.09096532782197805	-0.04173109450906642	-0.8556246508466815	-0.2460364286994232	-0.5842466842070558	2.687922616725966	-0.1974389257904689	0.7682660342342336	-0.1055348278354276	2.053991705418585	2.053991705418352	0.1496323598675885	-0.0851587264456756	0.4037360201720316	-0.02213687014109617	-0.1851663858921277	0.01704521463885513	-0.01133926965104783	-0.2174939637835052	0.08060035315478754	0.04665855599372688	0.1779220178213109	-6.846527838690291	-21.93911143995831	6.444665495384415	-8.674778548501033	-520.7382365141224	-61.19903795510521	-23.94705313005085	0.9492706382276928	0.7093281304066276	-0.4884309565779336	-1.533126508079761	0.7900936993973442	-0.2394950102481189	1.130442765365845	-1.333793991033762	-1.333793991033773	0.1069149334221058	0.1975944341704954	-0.5482755347011352	0.572386772199723	-6.353806322210283e-07	-3.228931454890787e-07	3.346028601452094e-06	2.224998869631962e-07	-7.135846798472332e-07	3.59093670125828e-07	-5.24199977592502e-07
0.51	-0.3849964789216927	-0.0576407530746235	0.7406479824650881	1.208045860904871	-0.4387071368461508	-0.2061307875041089	-0.2567479157676835	0.8533398586806566	0.8533398586804422	-0.1195857773095264	-0.1609331169742116	0.09497405664911235	-0.04192596187931725	-0.8455794198536549	-0.2388672535639009	-0.5887451373616519	2.671180569465047	-0.1897905216934526	0.766124045667087	-0.09457581047296558	2.039749797219522	2.039749797219332	0.1496775539402063	-0.08303606003569916	0.3979357156170787	-0.01685157806753908	-0.191204732349886	0.01755986157701923	-0.01135464039635318	-0.220261907297563	0.08053569888263054	0.04697350619986308	0.1824876963157916	-7.097944198143958	-22.00200191774295	6.420570765785104	-8.61982489059695	-524.7628423529495	-60.7644683198668	-22.99167767408229	1.050843207752319	0.7236428496660857	-0.4117090577007419	-1.799568675019227	0.7537602999574623	-0.217041996867775	1.070438161961298	-1.510453447744729	-1.510453447738364	-0.048486691681836	0.2210975563173798	-0.6069909659583915	0.5040040085292027	-6.22055188748409e-07	-2.224969508563834e-07	3.39936335355282e-06	2.498944962346409e-07	-6.899696213444779e-07	4.483097052013205e-07	-5.169610258964622e-07
0.52	-0.3933989341545682	-0.05999308973140197	0.734741174734971	1.234664815585202	-0.4405665553902759	-0.1984828539471549	-0.2576402442955548	0.8736593065504121	0.8736593065500339	-0.1180890747496797	-0.1617525923569916	0.0989225658206839	-0.0420684956121134	-0.8347864337441401	-0.2315808526467384	-0.5924898530282577	2.65224552860728	-0.1820802561922889	0.7633624084231468	-0.08394451549950573	2.023865320484373	2.023865320484225	0.1496504145782863	-0.0808536011494761	0.3916920890594844	-0.01167014265016184	-0.1972430788076381	0.01807450851518439	-0.01137001114168183	-0.2230298508116192	0.08047104461047337	0.04728845640600075	0.1870533748102783	-7.353391345405636	-22.06493903665135	6.397345059347978	-8.597583926201441	-528.8779748243493	-60.3961455259568	-22.03861654198818	1.09882166152535	0.7327732867346531	-0.3376834589798679	-1.971725227449302	0.8024659802268126	-0.3634247456068445	1.064898287565415	-1.662307698250985	-1.662307698250985	0.09244824651455455	0.2095529294198203	-0.6369399352294354	0.5516154409637524	-6.085205666347766e-07	-1.23996485267827e-07	3.44855246343752e-06	2.812725603693045e-07	-6.70635289132696e-07	5.378052487522925e-07	-5.085616269650692e-07
0.53	-0.4016899302820262	-0.06227208126649086	0.7288007072631659	1.261083843320052	-0.4423485207633509	-0.1908653120441527	-0.2584279836004303	0.8938118739007078	0.89381187390057	-0.1165930298641812	-0.1625497718992536	0.1028064967343186	-0.04215965747895424	-0.82329299005531	-0.2242071937241754	-0.5954742965801463	2.631208493764394	-0.1743045943158612	0.7600393600677469	-0.07368116479334336	2.00638827788412	2.006388277884023	0.1495545622044926	-0.07858164916639299	0.3850262869510967	-0.006579091245953785	-0.203119870197709	0.01824334028447594	-0.0113116342519039	-0.2258441362255417	0.0803263262058697	0.0475565068132431	0.1914337884011436	-7.633348570831146	-22.10062109583301	6.366807896001212	-8.461810377908485	-532.9127388254441	-60.05499396620136	-21.09229470363677	1.192490620506955	0.7412608428367542	-0.259555186379673	-2.222520555429046	0.7659182062242378	-0.3331694133177502	0.9953805644795434	-1.829282464550593	-1.829282464542902	-0.06110805096761121	0.2368171472047096	-0.6915373248395555	0.4849266096131545	-5.886159824050887e-07	-2.505751880484464e-08	3.47072459157145e-06	3.092726801386959e-07	-6.456531413090731e-07	6.216803377194206e-07	-4.956769551759961e-07
0.54	-0.4098624149930072	-0.06447701648279018	0.7228342492792247	1.287281935117929	-0.4440525691346869	-0.1832842855312664	-0.2591154239777765	0.9137818948402739	0.9137818948403763	-0.1150980447167498	-0.1633240717587931	0.1066217422316303	-0.04220049350786024	-0.8110841504486742	-0.2167695888888294	-0.5976879554554863	2.608058341212676	-0.166496855844494	0.7560593303999	-0.06388472999366408	1.98735603833834	1.987356038338295	0.1494384669650476	-0.07627766460522342	0.3779550057948645	-0.001604975063192706	-0.2089966615877753	0.01841217205376849	-0.01125325736214081	-0.2286584216394634	0.08018160780126594	0.04782455722048678	0.1958142019920133	-7.916195319792945	-22.1366944660064	6.337360245209307	-8.365003625452289	-537.0230009227957	-59.77682632226887	-20.15711646532723	1.241900845086482	0.7455624692912078	-0.1835265236701416	-2.394348769215755	0.8088812992147065	-0.4948210080962386	0.9715151062687996	-1.973347087356336	-1.973347087356348	0.08839967338426555	0.2159594450371159	-0.7180357447983349	0.5282283966743561	-5.61663780515084e-07	7.43665975617578e-08	3.46300559095985e-06	3.335354997592757e-07	-6.14422346425541e-07	6.993370514022958e-07	-4.778298538422553e-07
0.55	-0.417909450434077	-0.06660733345849978	0.716849523149021	1.313238309152475	-0.4456783104087075	-0.1757459630842214	-0.2597072675778588	0.9335539752624532	0.9335539752625397	-0.1136043640615261	-0.1640749186623656	0.1103643628072491	-0.04219204413313137	-0.7982079603495108	-0.2092898197520836	-0.59912507657897	2.582870777896705	-0.1586505216754759	0.7515069364062809	-0.05458209703541576	1.966810644857124	1.966810644857069	0.1492840037411056	-0.07388717755588455	0.3705092631100174	0.003273510130475233	-0.2146751200520003	0.01847452509402887	-0.01111833992773164	-0.2316049018125588	0.08020281875686475	0.04782453282962631	0.1999938528632461	-8.14853331374414	-22.05837103709102	6.281887274485178	-8.201714041304701	-541.0583938915101	-59.31510242159368	-19.23536448662884	1.327642500612403	0.7498514649688426	-0.1040952832154315	-2.632908626882943	0.7721858111307127	-0.4505784594204383	0.8949213387114878	-2.132452045550184	-2.132452045551619	-0.06930628336012966	0.251972885114084	-0.7667736948668611	0.4640322444841961	-5.315051478906826e-07	1.542684173915966e-07	3.418853411511695e-06	3.496852832185722e-07	-5.795621898472419e-07	7.672018254698034e-07	-4.583281782428633e-07
